{"accessors" : [{"bufferView" : 0, "byteOffset" : 0, "componentType" : 5123, "count" : 267984, "type" : "SCALAR", "max" : [44996], "min" : [0]}, {"bufferView" : 1, "byteOffset" : 0, "componentType" : 5126, "count" : 44997, "type" : "VEC3", "max" : [1.1978100538253784, 1.735010027885437, 1.7026000022888184], "min" : [-1.1934599876403809, -1.5082600116729736, -1.3420000076293945], "name" : "POSITION"}, {"bufferView" : 1, "byteOffset" : 12, "componentType" : 5126, "count" : 44997, "type" : "VEC3", "max" : [0.9999683499336243, 0.999979555606842, 1.0000020265579224], "min" : [-0.9999416470527649, -0.9999695420265198, -0.9999551177024841], "name" : "NORMAL"}], "asset" : {"generator" : "Aspose.3D 24.6.0", "version" : "2.0"}, "buffers" : [{"uri" : "data:application/octet-stream;base64,", "byteLength" : 1615904}], "bufferViews" : [{"buffer" : 0, "byteOffset" : 0, "byteLength" : 535968, "target" : 34963}, {"buffer" : 0, "byteOffset" : 535972, "byteLength" : 1079928, "byteStride" : 24, "target" : 34962}], "meshes" : [{"primitives" : [{"attributes" : {"POSITION" : 1, "NORMAL" : 2}, "indices" : 0, "mode" : 4}], "name" : ""}], "nodes" : [{"mesh" : 0, "name" : ""}], "scene" : 0, "scenes" : [{"nodes" : [0]}]}